{"asset":{"version":"2.0","generator":"VECTARY"},"nodes":[{"translation":[0,0,0],"scale":[0.001,0.001,0.001],"rotation":[-0.7071067811865475,0,0,0.7071067811865476],"name":"21","children":[1,2,3,4,5]},{"translation":[-568.4500122070312,-125.2449951171875,0.3000000119210422],"scale":[1,1,1],"rotation":[0.7071067811865475,0,0,0.7071067811865476],"name":"??1","mesh":0},{"translation":[-568.4500122070312,-125.2449951171875,0.3000000119210422],"scale":[1,1,1],"rotation":[0.7071067811865475,0,0,0.7071067811865476],"name":"??1","mesh":1},{"translation":[-568.4500122070312,-125.2449951171875,0.3000000119210422],"scale":[1,1,1],"rotation":[0.7071067811865475,0,0,0.7071067811865476],"name":"??1","mesh":2},{"translation":[-568.4500122070312,-125.2449951171875,0.3000000119210422],"scale":[1,1,1],"rotation":[0.7071067811865475,0,0,0.7071067811865476],"name":"??1","mesh":3},{"translation":[-568.4500122070312,-125.2449951171875,0.3000000119210422],"scale":[1,1,1],"rotation":[0.7071067811865475,0,0,0.7071067811865476],"name":"??1","mesh":4}],"materials":[{"pbrMetallicRoughness":{"baseColorFactor":[0.42807474628889924,0.015395747150669206,0.022993204992706774,1],"metallicFactor":0,"roughnessFactor":0.7},"name":"Material__32","emissiveFactor":[0,0,0],"alphaMode":"OPAQUE","doubleSided":false},{"pbrMetallicRoughness":{"baseColorFactor":[0.25902733248960613,0.25902733248960613,0.25902733248960613,1],"metallicFactor":0,"roughnessFactor":0.7},"name":"01___Default","emissiveFactor":[0,0,0],"alphaMode":"OPAQUE","doubleSided":false},{"pbrMetallicRoughness":{"baseColorFactor":[1,1,1,1],"metallicFactor":0,"roughnessFactor":0.7},"name":"02___Default","emissiveFactor":[0,0,0],"alphaMode":"OPAQUE","doubleSided":false}],"meshes":[{"primitives":[{"mode":4,"attributes":{"POSITION":1,"NORMAL":2},"material":0,"indices":0}]},{"primitives":[{"mode":4,"attributes":{"POSITION":4,"NORMAL":5},"material":1,"indices":3}]},{"primitives":[{"mode":4,"attributes":{"POSITION":7,"NORMAL":8},"material":2,"indices":6}]},{"primitives":[{"mode":4,"attributes":{"POSITION":10,"NORMAL":11},"material":1,"indices":9}]},{"primitives":[{"mode":4,"attributes":{"POSITION":13,"NORMAL":14},"material":1,"indices":12}]}],"accessors":[{"bufferView":0,"byteOffset":0,"componentType":5125,"count":48552,"type":"SCALAR"},{"bufferView":1,"byteOffset":0,"componentType":5126,"count":17170,"max":[706.9500122070312,220.6999969482422,266.6300048828125],"min":[429.95001220703125,38.20000076293945,-160.1199951171875],"type":"VEC3"},{"bufferView":2,"byteOffset":0,"componentType":5126,"count":17170,"type":"VEC3"},{"bufferView":3,"byteOffset":0,"componentType":5125,"count":948,"type":"SCALAR"},{"bufferView":4,"byteOffset":0,"componentType":5126,"count":312,"max":[655.9500122070312,42.400001525878906,-85.12000274658203],"min":[654.4500122070312,35.400001525878906,-99.12000274658203],"type":"VEC3"},{"bufferView":5,"byteOffset":0,"componentType":5126,"count":312,"type":"VEC3"},{"bufferView":6,"byteOffset":0,"componentType":5125,"count":1067757,"type":"SCALAR"},{"bufferView":7,"byteOffset":0,"componentType":5126,"count":307558,"max":[703.3499755859375,213.1999969482422,266.6300048828125],"min":[433.54998779296875,0.20000000298023224,-504.9200134277344],"type":"VEC3"},{"bufferView":8,"byteOffset":0,"componentType":5126,"count":307558,"type":"VEC3"},{"bufferView":9,"byteOffset":0,"componentType":5125,"count":1095009,"type":"SCALAR"},{"bufferView":10,"byteOffset":0,"componentType":5126,"count":369930,"max":[700.9500122070312,212.6999969482422,266.3800048828125],"min":[435.95001220703125,-0.30000001192092896,-517.1199951171875],"type":"VEC3"},{"bufferView":11,"byteOffset":0,"componentType":5126,"count":369930,"type":"VEC3"},{"bufferView":12,"byteOffset":0,"componentType":5125,"count":7422,"type":"SCALAR"},{"bufferView":13,"byteOffset":0,"componentType":5126,"count":2474,"max":[471.19000244140625,95.94999694824219,2.380000114440918],"min":[462.7099914550781,87.44999694824219,-6.619999885559082],"type":"VEC3"},{"bufferView":14,"byteOffset":0,"componentType":5126,"count":2474,"type":"VEC3"}],"bufferViews":[{"buffer":0,"byteOffset":0,"byteLength":194208,"target":34963},{"buffer":0,"byteOffset":194208,"byteLength":206040,"target":34962},{"buffer":0,"byteOffset":400248,"byteLength":206040,"target":34962},{"buffer":0,"byteOffset":606288,"byteLength":3792,"target":34963},{"buffer":0,"byteOffset":610080,"byteLength":3744,"target":34962},{"buffer":0,"byteOffset":613824,"byteLength":3744,"target":34962},{"buffer":0,"byteOffset":617568,"byteLength":4271028,"target":34963},{"buffer":0,"byteOffset":4888596,"byteLength":3690696,"target":34962},{"buffer":0,"byteOffset":8579292,"byteLength":3690696,"target":34962},{"buffer":0,"byteOffset":12269988,"byteLength":4380036,"target":34963},{"buffer":0,"byteOffset":16650024,"byteLength":4439160,"target":34962},{"buffer":0,"byteOffset":21089184,"byteLength":4439160,"target":34962},{"buffer":0,"byteOffset":25528344,"byteLength":29688,"target":34963},{"buffer":0,"byteOffset":25558032,"byteLength":29688,"target":34962},{"buffer":0,"byteOffset":25587720,"byteLength":29688,"target":34962}],"scene":0,"scenes":[{"nodes":[0],"name":"第四站_21_全立發"}],"extensionsUsed":["KHR_texture_transform"],"buffers":[{"byteLength":25617408,"uri":"第四站_21_全立發.bin"}]}