{"asset":{"version":"2.0","generator":"VECTARY"},"nodes":[{"translation":[0,0,0],"scale":[0.0001,0.0001,0.0001],"rotation":[-0.7071067811865475,0,0,0.7071067811865476],"name":"26","children":[1,2,3,4,5,6,7,8,9,10,11,12,13,14,15,19,20,21,22,23,24,25,26,27]},{"translation":[-11.235000610351562,351.7300109863281,0.12999999523165903],"scale":[1,1,1],"rotation":[0.7071067811865475,0,0,0.7071067811865476],"name":"??1","mesh":0},{"translation":[-11.235000610351562,351.7300109863281,0.12999999523165903],"scale":[1,1,1],"rotation":[0.7071067811865475,0,0,0.7071067811865476],"name":"??1","mesh":1},{"translation":[-11.235000610351562,351.7300109863281,0.12999999523165903],"scale":[1,1,1],"rotation":[0.7071067811865475,0,0,0.7071067811865476],"name":"??1","mesh":2},{"translation":[-11.235000610351562,351.7300109863281,0.12999999523165903],"scale":[1,1,1],"rotation":[0.7071067811865475,0,0,0.7071067811865476],"name":"??1","mesh":3},{"translation":[-11.235000610351562,351.7300109863281,0.12999999523165903],"scale":[1,1,1],"rotation":[0.7071067811865475,0,0,0.7071067811865476],"name":"??1","mesh":4},{"translation":[-11.235000610351562,351.7300109863281,0.12999999523165903],"scale":[1,1,1],"rotation":[0.7071067811865475,0,0,0.7071067811865476],"name":"??1","mesh":5},{"translation":[-11.235000610351562,351.7300109863281,0.12999999523165903],"scale":[1,1,1],"rotation":[0.7071067811865475,0,0,0.7071067811865476],"name":"??1","mesh":6},{"translation":[-11.235000610351562,351.7300109863281,0.12999999523165903],"scale":[1,1,1],"rotation":[0.7071067811865475,0,0,0.7071067811865476],"name":"??1","mesh":7},{"translation":[-11.235000610351562,351.7300109863281,0.12999999523165903],"scale":[1,1,1],"rotation":[0.7071067811865475,0,0,0.7071067811865476],"name":"??1","mesh":8},{"translation":[-11.235000610351562,351.7300109863281,0.12999999523165903],"scale":[1,1,1],"rotation":[0.7071067811865475,0,0,0.7071067811865476],"name":"??1","mesh":9},{"translation":[-11.235000610351562,351.7300109863281,0.12999999523165903],"scale":[1,1,1],"rotation":[0.7071067811865475,0,0,0.7071067811865476],"name":"??1","mesh":10},{"translation":[-11.235000610351562,351.7300109863281,0.12999999523165903],"scale":[1,1,1],"rotation":[0.7071067811865475,0,0,0.7071067811865476],"name":"??1","mesh":11},{"translation":[-11.235000610351562,351.7300109863281,0.12999999523165903],"scale":[1,1,1],"rotation":[0.7071067811865475,0,0,0.7071067811865476],"name":"??1","mesh":12},{"translation":[-11.235000610351562,351.7300109863281,0.12999999523165903],"scale":[1,1,1],"rotation":[0.7071067811865475,0,0,0.7071067811865476],"name":"??1","mesh":13},{"translation":[-0.20000076293945312,0,0],"scale":[1,1,1],"rotation":[0,0,0,1],"name":"??1","children":[16,17,18]},{"translation":[1.9249992370605469,493.0500183105469,87.67500060796738],"scale":[1,1,1],"rotation":[0.7071067811865475,0,0,0.7071067811865476],"name":"Buffer Layer","mesh":14},{"translation":[-11.03499984741211,351.7300109863281,0.12999999523165903],"scale":[1,1,1],"rotation":[0.7071067811865475,0,0,0.7071067811865476],"name":"Buffer Layer","mesh":15},{"translation":[-11.03499984741211,351.7300109863281,0.12999999523165903],"scale":[1,1,1],"rotation":[0.7071067811865475,0,0,0.7071067811865476],"name":"Buffer Layer","mesh":16},{"translation":[-11.235000610351562,351.7300109863281,0.12999999523165903],"scale":[1,1,1],"rotation":[0.7071067811865475,0,0,0.7071067811865476],"name":"??1","mesh":17},{"translation":[-11.235000610351562,351.7300109863281,0.12999999523165903],"scale":[1,1,1],"rotation":[0.7071067811865475,0,0,0.7071067811865476],"name":"??1","mesh":18},{"translation":[-11.235000610351562,351.7300109863281,0.12999999523165903],"scale":[1,1,1],"rotation":[0.7071067811865475,0,0,0.7071067811865476],"name":"??1","mesh":19},{"translation":[-11.235000610351562,351.7300109863281,0.12999999523165903],"scale":[1,1,1],"rotation":[0.7071067811865475,0,0,0.7071067811865476],"name":"??1","mesh":20},{"translation":[-11.235000610351562,351.7300109863281,0.12999999523165903],"scale":[1,1,1],"rotation":[0.7071067811865475,0,0,0.7071067811865476],"name":"??1","mesh":21},{"translation":[-11.235000610351562,351.7300109863281,0.12999999523165903],"scale":[1,1,1],"rotation":[0.7071067811865475,0,0,0.7071067811865476],"name":"??1","mesh":22},{"translation":[-11.235000610351562,351.7300109863281,0.12999999523165903],"scale":[1,1,1],"rotation":[0.7071067811865475,0,0,0.7071067811865476],"name":"??1","mesh":23},{"translation":[-11.235000610351562,351.7300109863281,0.12999999523165903],"scale":[1,1,1],"rotation":[0.7071067811865475,0,0,0.7071067811865476],"name":"??1","mesh":24},{"translation":[-11.235000610351562,351.7300109863281,0.12999999523165903],"scale":[1,1,1],"rotation":[0.7071067811865475,0,0,0.7071067811865476],"name":"Box001","mesh":25}],"materials":[{"pbrMetallicRoughness":{"baseColorFactor":[0.0697270844425988,0.051122050056493396,0.348864834082879,1],"metallicFactor":0,"roughnessFactor":0.7},"name":"02___Default","emissiveFactor":[0,0,0],"alphaMode":"OPAQUE","doubleSided":false},{"pbrMetallicRoughness":{"baseColorFactor":[0.04329769050737351,0.04329769050737351,0.04329769050737351,1],"metallicFactor":0,"roughnessFactor":0.7},"name":"01___Default","emissiveFactor":[0,0,0],"alphaMode":"OPAQUE","doubleSided":false},{"pbrMetallicRoughness":{"baseColorFactor":[1,1,1,1],"metallicFactor":0,"roughnessFactor":0.7},"name":"03___Default","emissiveFactor":[0,0,0],"alphaMode":"OPAQUE","doubleSided":false}],"meshes":[{"primitives":[{"mode":4,"attributes":{"POSITION":1,"NORMAL":2},"material":0,"indices":0}]},{"primitives":[{"mode":4,"attributes":{"POSITION":4,"NORMAL":5},"material":0,"indices":3}]},{"primitives":[{"mode":4,"attributes":{"POSITION":7,"NORMAL":8},"material":1,"indices":6}]},{"primitives":[{"mode":4,"attributes":{"POSITION":10,"NORMAL":11},"material":0,"indices":9}]},{"primitives":[{"mode":4,"attributes":{"POSITION":13,"NORMAL":14},"material":0,"indices":12}]},{"primitives":[{"mode":4,"attributes":{"POSITION":16,"NORMAL":17},"material":0,"indices":15}]},{"primitives":[{"mode":4,"attributes":{"POSITION":19,"NORMAL":20},"material":0,"indices":18}]},{"primitives":[{"mode":4,"attributes":{"POSITION":22,"NORMAL":23},"material":0,"indices":21}]},{"primitives":[{"mode":4,"attributes":{"POSITION":25,"NORMAL":26},"material":0,"indices":24}]},{"primitives":[{"mode":4,"attributes":{"POSITION":28,"NORMAL":29},"material":0,"indices":27}]},{"primitives":[{"mode":4,"attributes":{"POSITION":31,"NORMAL":32},"material":0,"indices":30}]},{"primitives":[{"mode":4,"attributes":{"POSITION":34,"NORMAL":35},"material":0,"indices":33}]},{"primitives":[{"mode":4,"attributes":{"POSITION":37,"NORMAL":38},"material":1,"indices":36}]},{"primitives":[{"mode":4,"attributes":{"POSITION":40,"NORMAL":41},"material":2,"indices":39}]},{"primitives":[{"mode":4,"attributes":{"POSITION":43,"NORMAL":44},"material":0,"indices":42}]},{"primitives":[{"mode":4,"attributes":{"POSITION":46,"NORMAL":47},"material":1,"indices":45}]},{"primitives":[{"mode":4,"attributes":{"POSITION":49,"NORMAL":50},"material":2,"indices":48}]},{"primitives":[{"mode":4,"attributes":{"POSITION":52,"NORMAL":53},"material":1,"indices":51}]},{"primitives":[{"mode":4,"attributes":{"POSITION":55,"NORMAL":56},"material":1,"indices":54}]},{"primitives":[{"mode":4,"attributes":{"POSITION":58,"NORMAL":59},"material":1,"indices":57}]},{"primitives":[{"mode":4,"attributes":{"POSITION":61,"NORMAL":62},"material":1,"indices":60}]},{"primitives":[{"mode":4,"attributes":{"POSITION":64,"NORMAL":65},"material":0,"indices":63}]},{"primitives":[{"mode":4,"attributes":{"POSITION":67,"NORMAL":68},"material":0,"indices":66}]},{"primitives":[{"mode":4,"attributes":{"POSITION":70,"NORMAL":71},"material":1,"indices":69}]},{"primitives":[{"mode":4,"attributes":{"POSITION":73,"NORMAL":74},"material":0,"indices":72}]},{"primitives":[{"mode":4,"attributes":{"POSITION":76,"NORMAL":77},"material":0,"indices":75}]}],"accessors":[{"bufferView":0,"byteOffset":0,"componentType":5125,"count":5718,"type":"SCALAR"},{"bufferView":1,"byteOffset":0,"componentType":5126,"count":1750,"max":[98.86000061035156,80.91999816894531,230.17999267578125],"min":[95.86000061035156,17.719999313354492,155.67999267578125],"type":"VEC3"},{"bufferView":2,"byteOffset":0,"componentType":5126,"count":1750,"type":"VEC3"},{"bufferView":3,"byteOffset":0,"componentType":5125,"count":59436,"type":"SCALAR"},{"bufferView":4,"byteOffset":0,"componentType":5126,"count":13936,"max":[120.76000213623047,139.72000122070312,-38.720001220703125],"min":[118.16000366210938,19.219999313354492,-133.72000122070312],"type":"VEC3"},{"bufferView":5,"byteOffset":0,"componentType":5126,"count":13936,"type":"VEC3"},{"bufferView":6,"byteOffset":0,"componentType":5125,"count":3468,"type":"SCALAR"},{"bufferView":7,"byteOffset":0,"componentType":5126,"count":972,"max":[3.4100000858306885,85.13999938964844,192.22999572753906],"min":[-1.899999976158142,75.54000091552734,186.9199981689453],"type":"VEC3"},{"bufferView":8,"byteOffset":0,"componentType":5126,"count":972,"type":"VEC3"},{"bufferView":9,"byteOffset":0,"componentType":5125,"count":1608,"type":"SCALAR"},{"bufferView":10,"byteOffset":0,"componentType":5126,"count":540,"max":[-5.690000057220459,90.66999816894531,-122.2699966430664],"min":[-7.590000152587891,89.06999969482422,-124.16999816894531],"type":"VEC3"},{"bufferView":11,"byteOffset":0,"componentType":5126,"count":540,"type":"VEC3"},{"bufferView":12,"byteOffset":0,"componentType":5125,"count":2862,"type":"SCALAR"},{"bufferView":13,"byteOffset":0,"componentType":5126,"count":570,"max":[53.380001068115234,80.08000183105469,-126.29000091552734],"min":[47.33000183105469,40.06999969482422,-140.32000732421875],"type":"VEC3"},{"bufferView":14,"byteOffset":0,"componentType":5126,"count":570,"type":"VEC3"},{"bufferView":15,"byteOffset":0,"componentType":5125,"count":1548,"type":"SCALAR"},{"bufferView":16,"byteOffset":0,"componentType":5126,"count":516,"max":[62.08000183105469,21.690000534057617,-136.82000732421875],"min":[58.630001068115234,18.239999771118164,-139.22000122070312],"type":"VEC3"},{"bufferView":17,"byteOffset":0,"componentType":5126,"count":516,"type":"VEC3"},{"bufferView":18,"byteOffset":0,"componentType":5125,"count":3180,"type":"SCALAR"},{"bufferView":19,"byteOffset":0,"componentType":5126,"count":1156,"max":[-11.739999771118164,42.970001220703125,239.14999389648438],"min":[-14.539999961853027,20.969999313354492,217.2100067138672],"type":"VEC3"},{"bufferView":20,"byteOffset":0,"componentType":5126,"count":1156,"type":"VEC3"},{"bufferView":21,"byteOffset":0,"componentType":5125,"count":612,"type":"SCALAR"},{"bufferView":22,"byteOffset":0,"componentType":5126,"count":204,"max":[63.36000061035156,42.70000076293945,41.5],"min":[-12.640000343322754,21.229999542236328,19.8700008392334],"type":"VEC3"},{"bufferView":23,"byteOffset":0,"componentType":5126,"count":204,"type":"VEC3"},{"bufferView":24,"byteOffset":0,"componentType":5125,"count":3180,"type":"SCALAR"},{"bufferView":25,"byteOffset":0,"componentType":5126,"count":1156,"max":[-11.739999771118164,42.970001220703125,69.1500015258789],"min":[-14.539999961853027,20.969999313354492,47.209999084472656],"type":"VEC3"},{"bufferView":26,"byteOffset":0,"componentType":5126,"count":1156,"type":"VEC3"},{"bufferView":27,"byteOffset":0,"componentType":5125,"count":1500,"type":"SCALAR"},{"bufferView":28,"byteOffset":0,"componentType":5126,"count":500,"max":[-11.9399995803833,80.7699966430664,-111.12000274658203],"min":[-13.640000343322754,78.37000274658203,-113.5199966430664],"type":"VEC3"},{"bufferView":29,"byteOffset":0,"componentType":5126,"count":500,"type":"VEC3"},{"bufferView":30,"byteOffset":0,"componentType":5125,"count":2592,"type":"SCALAR"},{"bufferView":31,"byteOffset":0,"componentType":5126,"count":928,"max":[56.849998474121094,83.55999755859375,-137.32000732421875],"min":[43.86000061035156,70.56999969482422,-140.32000732421875],"type":"VEC3"},{"bufferView":32,"byteOffset":0,"componentType":5126,"count":928,"type":"VEC3"},{"bufferView":33,"byteOffset":0,"componentType":5125,"count":1548,"type":"SCALAR"},{"bufferView":34,"byteOffset":0,"componentType":5126,"count":516,"max":[7.079999923706055,91.47000122070312,-121.5],"min":[3.640000104904175,89.06999969482422,-124.94000244140625],"type":"VEC3"},{"bufferView":35,"byteOffset":0,"componentType":5126,"count":516,"type":"VEC3"},{"bufferView":36,"byteOffset":0,"componentType":5125,"count":1584,"type":"SCALAR"},{"bufferView":37,"byteOffset":0,"componentType":5126,"count":532,"max":[90.37999725341797,208,532.8800048828125],"min":[90.27999877929688,206.52999877929688,531.2000122070312],"type":"VEC3"},{"bufferView":38,"byteOffset":0,"componentType":5126,"count":532,"type":"VEC3"},{"bufferView":39,"byteOffset":0,"componentType":5125,"count":8652,"type":"SCALAR"},{"bufferView":40,"byteOffset":0,"componentType":5126,"count":2522,"max":[99.36000061035156,184.07000732421875,332.2799987792969],"min":[91.5199966430664,89.37000274658203,296.5400085449219],"type":"VEC3"},{"bufferView":41,"byteOffset":0,"componentType":5126,"count":2522,"type":"VEC3"},{"bufferView":42,"byteOffset":0,"componentType":5125,"count":462402,"type":"SCALAR"},{"bufferView":43,"byteOffset":0,"componentType":5126,"count":155073,"max":[107.4000015258789,87.67500305175781,936.1300048828125],"min":[-107.4000015258789,-87.67500305175781,-2.842170943040401e-14],"type":"VEC3"},{"bufferView":44,"byteOffset":0,"componentType":5126,"count":155073,"type":"VEC3"},{"bufferView":45,"byteOffset":0,"componentType":5125,"count":891774,"type":"SCALAR"},{"bufferView":46,"byteOffset":0,"componentType":5126,"count":309636,"max":[62.18000030517578,193.07000732421875,70.70999908447266],"min":[-57.34000015258789,111.47000122070312,-146.39999389648438],"type":"VEC3"},{"bufferView":47,"byteOffset":0,"componentType":5126,"count":309636,"type":"VEC3"},{"bufferView":48,"byteOffset":0,"componentType":5125,"count":998334,"type":"SCALAR"},{"bufferView":49,"byteOffset":0,"componentType":5126,"count":260723,"max":[109.01000213623047,212.47000122070312,870.780029296875],"min":[-98.29000091552734,59.119998931884766,-167.32000732421875],"type":"VEC3"},{"bufferView":50,"byteOffset":0,"componentType":5126,"count":260723,"type":"VEC3"},{"bufferView":51,"byteOffset":0,"componentType":5125,"count":1584,"type":"SCALAR"},{"bufferView":52,"byteOffset":0,"componentType":5126,"count":532,"max":[93.12999725341797,208,532.760009765625],"min":[93.02999877929688,206.52999877929688,531.0900268554688],"type":"VEC3"},{"bufferView":53,"byteOffset":0,"componentType":5126,"count":532,"type":"VEC3"},{"bufferView":54,"byteOffset":0,"componentType":5125,"count":432,"type":"SCALAR"},{"bufferView":55,"byteOffset":0,"componentType":5126,"count":144,"max":[-58.0099983215332,56.36000061035156,580.780029296875],"min":[-69.27999877929688,44.93000030517578,321.3800048828125],"type":"VEC3"},{"bufferView":56,"byteOffset":0,"componentType":5126,"count":144,"type":"VEC3"},{"bufferView":57,"byteOffset":0,"componentType":5125,"count":948,"type":"SCALAR"},{"bufferView":58,"byteOffset":0,"componentType":5126,"count":316,"max":[-67.5199966430664,65.7699966430664,349.2099914550781],"min":[-72.37000274658203,63.27000045776367,344.3500061035156],"type":"VEC3"},{"bufferView":59,"byteOffset":0,"componentType":5126,"count":316,"type":"VEC3"},{"bufferView":60,"byteOffset":0,"componentType":5125,"count":1548,"type":"SCALAR"},{"bufferView":61,"byteOffset":0,"componentType":5126,"count":516,"max":[-33.91999816894531,58.38999938964844,787.280029296875],"min":[-37.369998931884766,54.939998626708984,784.8800048828125],"type":"VEC3"},{"bufferView":62,"byteOffset":0,"componentType":5126,"count":516,"type":"VEC3"},{"bufferView":63,"byteOffset":0,"componentType":5125,"count":59496,"type":"SCALAR"},{"bufferView":64,"byteOffset":0,"componentType":5126,"count":13960,"max":[120.76000213623047,139.72000122070312,56.68000030517578],"min":[118.16000366210938,19.219999313354492,-38.31999969482422],"type":"VEC3"},{"bufferView":65,"byteOffset":0,"componentType":5126,"count":13960,"type":"VEC3"},{"bufferView":66,"byteOffset":0,"componentType":5125,"count":5718,"type":"SCALAR"},{"bufferView":67,"byteOffset":0,"componentType":5126,"count":1750,"max":[98.86000061035156,80.91999816894531,155.27999877929688],"min":[95.86000061035156,17.719999313354492,80.77999877929688],"type":"VEC3"},{"bufferView":68,"byteOffset":0,"componentType":5126,"count":1750,"type":"VEC3"},{"bufferView":69,"byteOffset":0,"componentType":5125,"count":89250,"type":"SCALAR"},{"bufferView":70,"byteOffset":0,"componentType":5126,"count":23966,"max":[84.86000061035156,215.77000427246094,510.2799987792969],"min":[-60.13999938964844,78.97000122070312,443.2799987792969],"type":"VEC3"},{"bufferView":71,"byteOffset":0,"componentType":5126,"count":23966,"type":"VEC3"},{"bufferView":72,"byteOffset":0,"componentType":5125,"count":8496,"type":"SCALAR"},{"bufferView":73,"byteOffset":0,"componentType":5126,"count":2568,"max":[93.36000061035156,41.31999969482422,-143.22000122070312],"min":[-96.88999938964844,13.869999885559082,-163.72000122070312],"type":"VEC3"},{"bufferView":74,"byteOffset":0,"componentType":5126,"count":2568,"type":"VEC3"},{"bufferView":75,"byteOffset":0,"componentType":5125,"count":36,"type":"SCALAR"},{"bufferView":76,"byteOffset":0,"componentType":5126,"count":24,"max":[48.36000061035156,64.4000015258789,533.280029296875],"min":[-37.63999938964844,54.400001525878906,343.2799987792969],"type":"VEC3"},{"bufferView":77,"byteOffset":0,"componentType":5126,"count":24,"type":"VEC3"}],"bufferViews":[{"buffer":0,"byteOffset":0,"byteLength":22872,"target":34963},{"buffer":0,"byteOffset":22872,"byteLength":21000,"target":34962},{"buffer":0,"byteOffset":43872,"byteLength":21000,"target":34962},{"buffer":0,"byteOffset":64872,"byteLength":237744,"target":34963},{"buffer":0,"byteOffset":302616,"byteLength":167232,"target":34962},{"buffer":0,"byteOffset":469848,"byteLength":167232,"target":34962},{"buffer":0,"byteOffset":637080,"byteLength":13872,"target":34963},{"buffer":0,"byteOffset":650952,"byteLength":11664,"target":34962},{"buffer":0,"byteOffset":662616,"byteLength":11664,"target":34962},{"buffer":0,"byteOffset":674280,"byteLength":6432,"target":34963},{"buffer":0,"byteOffset":680712,"byteLength":6480,"target":34962},{"buffer":0,"byteOffset":687192,"byteLength":6480,"target":34962},{"buffer":0,"byteOffset":693672,"byteLength":11448,"target":34963},{"buffer":0,"byteOffset":705120,"byteLength":6840,"target":34962},{"buffer":0,"byteOffset":711960,"byteLength":6840,"target":34962},{"buffer":0,"byteOffset":718800,"byteLength":6192,"target":34963},{"buffer":0,"byteOffset":724992,"byteLength":6192,"target":34962},{"buffer":0,"byteOffset":731184,"byteLength":6192,"target":34962},{"buffer":0,"byteOffset":737376,"byteLength":12720,"target":34963},{"buffer":0,"byteOffset":750096,"byteLength":13872,"target":34962},{"buffer":0,"byteOffset":763968,"byteLength":13872,"target":34962},{"buffer":0,"byteOffset":777840,"byteLength":2448,"target":34963},{"buffer":0,"byteOffset":780288,"byteLength":2448,"target":34962},{"buffer":0,"byteOffset":782736,"byteLength":2448,"target":34962},{"buffer":0,"byteOffset":785184,"byteLength":12720,"target":34963},{"buffer":0,"byteOffset":797904,"byteLength":13872,"target":34962},{"buffer":0,"byteOffset":811776,"byteLength":13872,"target":34962},{"buffer":0,"byteOffset":825648,"byteLength":6000,"target":34963},{"buffer":0,"byteOffset":831648,"byteLength":6000,"target":34962},{"buffer":0,"byteOffset":837648,"byteLength":6000,"target":34962},{"buffer":0,"byteOffset":843648,"byteLength":10368,"target":34963},{"buffer":0,"byteOffset":854016,"byteLength":11136,"target":34962},{"buffer":0,"byteOffset":865152,"byteLength":11136,"target":34962},{"buffer":0,"byteOffset":876288,"byteLength":6192,"target":34963},{"buffer":0,"byteOffset":882480,"byteLength":6192,"target":34962},{"buffer":0,"byteOffset":888672,"byteLength":6192,"target":34962},{"buffer":0,"byteOffset":894864,"byteLength":6336,"target":34963},{"buffer":0,"byteOffset":901200,"byteLength":6384,"target":34962},{"buffer":0,"byteOffset":907584,"byteLength":6384,"target":34962},{"buffer":0,"byteOffset":913968,"byteLength":34608,"target":34963},{"buffer":0,"byteOffset":948576,"byteLength":30264,"target":34962},{"buffer":0,"byteOffset":978840,"byteLength":30264,"target":34962},{"buffer":0,"byteOffset":1009104,"byteLength":1849608,"target":34963},{"buffer":0,"byteOffset":2858712,"byteLength":1860876,"target":34962},{"buffer":0,"byteOffset":4719588,"byteLength":1860876,"target":34962},{"buffer":0,"byteOffset":6580464,"byteLength":3567096,"target":34963},{"buffer":0,"byteOffset":10147560,"byteLength":3715632,"target":34962},{"buffer":0,"byteOffset":13863192,"byteLength":3715632,"target":34962},{"buffer":0,"byteOffset":17578824,"byteLength":3993336,"target":34963},{"buffer":0,"byteOffset":21572160,"byteLength":3128676,"target":34962},{"buffer":0,"byteOffset":24700836,"byteLength":3128676,"target":34962},{"buffer":0,"byteOffset":27829512,"byteLength":6336,"target":34963},{"buffer":0,"byteOffset":27835848,"byteLength":6384,"target":34962},{"buffer":0,"byteOffset":27842232,"byteLength":6384,"target":34962},{"buffer":0,"byteOffset":27848616,"byteLength":1728,"target":34963},{"buffer":0,"byteOffset":27850344,"byteLength":1728,"target":34962},{"buffer":0,"byteOffset":27852072,"byteLength":1728,"target":34962},{"buffer":0,"byteOffset":27853800,"byteLength":3792,"target":34963},{"buffer":0,"byteOffset":27857592,"byteLength":3792,"target":34962},{"buffer":0,"byteOffset":27861384,"byteLength":3792,"target":34962},{"buffer":0,"byteOffset":27865176,"byteLength":6192,"target":34963},{"buffer":0,"byteOffset":27871368,"byteLength":6192,"target":34962},{"buffer":0,"byteOffset":27877560,"byteLength":6192,"target":34962},{"buffer":0,"byteOffset":27883752,"byteLength":237984,"target":34963},{"buffer":0,"byteOffset":28121736,"byteLength":167520,"target":34962},{"buffer":0,"byteOffset":28289256,"byteLength":167520,"target":34962},{"buffer":0,"byteOffset":28456776,"byteLength":22872,"target":34963},{"buffer":0,"byteOffset":28479648,"byteLength":21000,"target":34962},{"buffer":0,"byteOffset":28500648,"byteLength":21000,"target":34962},{"buffer":0,"byteOffset":28521648,"byteLength":357000,"target":34963},{"buffer":0,"byteOffset":28878648,"byteLength":287592,"target":34962},{"buffer":0,"byteOffset":29166240,"byteLength":287592,"target":34962},{"buffer":0,"byteOffset":29453832,"byteLength":33984,"target":34963},{"buffer":0,"byteOffset":29487816,"byteLength":30816,"target":34962},{"buffer":0,"byteOffset":29518632,"byteLength":30816,"target":34962},{"buffer":0,"byteOffset":29549448,"byteLength":144,"target":34963},{"buffer":0,"byteOffset":29549592,"byteLength":288,"target":34962},{"buffer":0,"byteOffset":29549880,"byteLength":288,"target":34962}],"scene":0,"scenes":[{"nodes":[0],"name":"第四站_26_聯有"}],"extensionsUsed":["KHR_texture_transform"],"buffers":[{"byteLength":29550168,"uri":"第四站_26_聯有.bin"}]}