{"asset":{"version":"2.0","generator":"VECTARY"},"nodes":[{"translation":[0,0,0],"scale":[0.001,0.001,0.001],"rotation":[-0.7071067811865475,0,0,0.7071067811865476],"name":"NONE","children":[1,2,3]},{"translation":[-1.7199993133544922,-53.949996948242195,0.009999999776513757],"scale":[1,1,1],"rotation":[0.7071067811865475,0,0,0.7071067811865476],"name":"Buffer Layer","mesh":0},{"translation":[-1.7199993133544922,-53.949996948242195,0.009999999776513757],"scale":[1,1,1],"rotation":[0.7071067811865475,0,0,0.7071067811865476],"name":"Buffer Layer","mesh":1},{"translation":[-1.7199993133544922,-53.949996948242195,0.009999999776513757],"scale":[1,1,1],"rotation":[0.7071067811865475,0,0,0.7071067811865476],"name":"Buffer Layer","mesh":2}],"materials":[{"pbrMetallicRoughness":{"baseColorFactor":[0.7742273142184415,0.7592995506950911,0.7082977936560324,1],"metallicFactor":0,"roughnessFactor":0.7},"name":"01___Default","emissiveFactor":[0,0,0],"alphaMode":"OPAQUE","doubleSided":false},{"pbrMetallicRoughness":{"baseColorFactor":[0.27926316736019974,0.27926316736019974,0.27926316736019974,1],"metallicFactor":0,"roughnessFactor":0.7},"name":"03___Default","emissiveFactor":[0,0,0],"alphaMode":"OPAQUE","doubleSided":false},{"pbrMetallicRoughness":{"baseColorFactor":[1,0.156181864191168,0.0013732006791326466,1],"metallicFactor":0,"roughnessFactor":0.7},"name":"02___Default","emissiveFactor":[0,0,0],"alphaMode":"OPAQUE","doubleSided":false}],"meshes":[{"primitives":[{"mode":4,"attributes":{"POSITION":1,"NORMAL":2},"material":0,"indices":0}]},{"primitives":[{"mode":4,"attributes":{"POSITION":4,"NORMAL":5},"material":1,"indices":3}]},{"primitives":[{"mode":4,"attributes":{"POSITION":7,"NORMAL":8},"material":2,"indices":6}]}],"accessors":[{"bufferView":0,"byteOffset":0,"componentType":5125,"count":766896,"type":"SCALAR"},{"bufferView":1,"byteOffset":0,"componentType":5126,"count":227139,"max":[49.65999984741211,144.67999267578125,32.58000183105469],"min":[-46.220001220703125,0,-138.82000732421875],"type":"VEC3"},{"bufferView":2,"byteOffset":0,"componentType":5126,"count":227139,"type":"VEC3"},{"bufferView":3,"byteOffset":0,"componentType":5125,"count":15921,"type":"SCALAR"},{"bufferView":4,"byteOffset":0,"componentType":5126,"count":5526,"max":[34.25,135.30999755859375,-4.340000152587891],"min":[-40.2400016784668,-0.009999999776482582,-140.47999572753906],"type":"VEC3"},{"bufferView":5,"byteOffset":0,"componentType":5126,"count":5526,"type":"VEC3"},{"bufferView":6,"byteOffset":0,"componentType":5125,"count":25647,"type":"SCALAR"},{"bufferView":7,"byteOffset":0,"componentType":5126,"count":8220,"max":[32.349998474121094,30.59000015258789,28.209999084472656],"min":[-32.349998474121094,27.299999237060547,-39.810001373291016],"type":"VEC3"},{"bufferView":8,"byteOffset":0,"componentType":5126,"count":8220,"type":"VEC3"}],"bufferViews":[{"buffer":0,"byteOffset":0,"byteLength":3067584,"target":34963},{"buffer":0,"byteOffset":3067584,"byteLength":2725668,"target":34962},{"buffer":0,"byteOffset":5793252,"byteLength":2725668,"target":34962},{"buffer":0,"byteOffset":8518920,"byteLength":63684,"target":34963},{"buffer":0,"byteOffset":8582604,"byteLength":66312,"target":34962},{"buffer":0,"byteOffset":8648916,"byteLength":66312,"target":34962},{"buffer":0,"byteOffset":8715228,"byteLength":102588,"target":34963},{"buffer":0,"byteOffset":8817816,"byteLength":98640,"target":34962},{"buffer":0,"byteOffset":8916456,"byteLength":98640,"target":34962}],"scene":0,"scenes":[{"nodes":[0],"name":"第四站_28_百塑"}],"extensionsUsed":["KHR_texture_transform"],"buffers":[{"byteLength":9015096,"uri":"第四站_28_百塑.bin"}]}